<svg width="11" height="19" viewBox="0 0 11 19" fill="none" xmlns="http://www.w3.org/2000/svg">
<path d="M2.18459 9.5L9.71729 17.0327C9.91601 17.2314 10.0128 17.4654 10.0077 17.7346C10.0025 18.0038 9.90061 18.2378 9.70189 18.4365C9.50319 18.6352 9.26922 18.7346 8.99999 18.7346C8.73075 18.7346 8.49679 18.6352 8.29809 18.4365L0.626939 10.7808C0.446155 10.6 0.31218 10.3974 0.225014 10.1731C0.13783 9.94871 0.0942383 9.72435 0.0942383 9.5C0.0942383 9.27565 0.13783 9.05129 0.225014 8.82693C0.31218 8.60258 0.446155 8.40002 0.626939 8.21925L8.29809 0.548101C8.49679 0.349384 8.73332 0.252583 9.00769 0.2577C9.28204 0.262833 9.51857 0.364759 9.71729 0.563475C9.91601 0.762192 10.0154 0.996159 10.0154 1.26538C10.0154 1.53461 9.91601 1.76858 9.71729 1.9673L2.18459 9.5Z" fill="black"/>
</svg>
